<?xml version="1.0" encoding="UTF-8" standalone="no"?>
<!DOCTYPE svg PUBLIC "-//W3C//DTD SVG 1.1//EN" "http://www.w3.org/Graphics/SVG/1.1/DTD/svg11.dtd">
<!-- Created with Vectornator (http://vectornator.io/) -->
<svg height="100%" stroke-miterlimit="10" style="fill-rule:nonzero;clip-rule:evenodd;stroke-linecap:round;stroke-linejoin:round;" version="1.1" viewBox="0 0 512 512" width="100%" xml:space="preserve" xmlns="http://www.w3.org/2000/svg" xmlns:xlink="http://www.w3.org/1999/xlink">
<defs/>
<g id="Layer-1">
<g fill="#ffffff" opacity="1" stroke="none">
<path d="M190.15 353.946C190.15 358.346 188.517 361.979 185.25 364.846C181.983 367.712 177.45 369.212 171.65 369.346C170.183 369.346 168.617 369.112 166.95 368.646C163.883 367.912 162.283 367.546 162.15 367.546C160.55 367.212 158.933 366.879 157.3 366.546C155.667 366.212 154.25 365.546 153.05 364.546C151.25 363.079 149.783 360.746 148.65 357.546C147.25 353.746 146.183 351.379 145.45 350.446C144.917 349.912 144.283 349.046 143.55 347.846C143.35 346.979 143.533 346.112 144.1 345.246C144.667 344.379 145.35 343.812 146.15 343.546C146.55 343.412 147.283 343.346 148.35 343.346C150.683 343.346 153.533 343.612 156.9 344.146C160.267 344.679 162.15 345.146 162.55 345.546C162.95 345.946 163.483 348.112 164.15 352.046C164.75 355.646 165.65 357.646 166.85 358.046C167.117 358.179 167.417 358.246 167.75 358.246C169.017 358.246 170.1 357.296 171 355.396C171.9 353.496 172.35 351.346 172.35 348.946C172.35 343.746 170.55 340.279 166.95 338.546C158.683 334.479 152.883 330.746 149.55 327.346C145.683 323.412 143.95 318.746 144.35 313.346C144.683 308.812 146.5 304.262 149.8 299.696C153.1 295.129 156.583 292.446 160.25 291.646C161.783 291.312 166.45 292.612 174.25 295.546C176.183 296.212 178.133 296.912 180.1 297.646C182.067 298.379 183.65 299.446 184.85 300.846C186.717 302.912 187.65 306.546 187.65 311.746C187.65 312.679 187.617 314.079 187.55 315.946C187.483 317.546 187.45 318.679 187.45 319.346C187.517 319.746 187.75 320.446 188.15 321.446C188.483 322.112 188.617 322.779 188.55 323.446C188.417 326.046 187.183 327.512 184.85 327.846C183.517 327.979 181.05 327.512 177.45 326.446C173.45 325.312 170.917 324.079 169.85 322.746C169.717 322.612 169.65 322.012 169.65 320.946C169.65 320.079 169.767 318.046 170 314.846C170.233 311.646 170.35 309.346 170.35 307.946C170.35 305.346 170.017 304.079 169.35 304.146C167.283 304.279 165.567 305.612 164.2 308.146C162.833 310.679 162.15 313.579 162.15 316.846C162.15 322.246 163.917 326.079 167.45 328.346C171.45 330.612 175.45 332.879 179.45 335.146C183.25 337.412 185.883 339.646 187.35 341.846C189.217 344.712 190.15 348.746 190.15 353.946Z"/>
<path d="M231.05 322.646C230.983 323.779 230.583 324.762 229.85 325.596C229.117 326.429 228.317 326.846 227.45 326.846C227.183 326.846 226.95 326.812 226.75 326.746C225.817 326.412 223.717 326.246 220.45 326.246L220.45 361.846C220.45 361.779 220.667 362.262 221.1 363.296C221.533 364.329 221.75 365.212 221.75 365.946C221.75 367.679 220.417 368.612 217.75 368.746C216.35 368.812 213.783 368.279 210.05 367.146C205.983 365.946 203.817 364.846 203.55 363.846C203.417 363.379 203.65 362.479 204.25 361.146C204.85 359.812 205.15 358.779 205.15 358.046L205.15 326.146L201.75 326.146C200.483 326.146 198.917 325.146 197.05 323.146C195.183 321.146 194.25 319.546 194.25 318.346C194.25 317.479 194.633 316.679 195.4 315.946C196.167 315.212 197.017 314.846 197.95 314.846L205.15 314.846L205.15 306.746C204.15 305.546 203.65 304.246 203.65 302.846C203.65 301.579 204.25 300.812 205.45 300.546C206.05 300.412 206.883 300.346 207.95 300.346C210.417 300.346 213.3 300.696 216.6 301.396C219.9 302.096 222.05 302.812 223.05 303.546C223.517 303.879 223.75 304.279 223.75 304.746C223.75 305.346 223.217 306.246 222.15 307.446C221.083 308.646 220.517 309.479 220.45 309.946L220.45 314.846L223.65 314.846C224.317 314.846 225.717 315.929 227.85 318.096C229.983 320.262 231.05 321.779 231.05 322.646Z"/>
<path d="M284.65 364.846C284.583 365.646 284.183 366.346 283.45 366.946C282.717 367.546 281.883 367.779 280.95 367.646C272.683 366.646 268.083 365.246 267.15 363.446C267.017 363.179 266.95 362.946 266.95 362.746C266.95 362.412 267.1 362.079 267.4 361.746C267.7 361.412 267.883 361.096 267.95 360.796C268.017 360.496 268.15 360.246 268.35 360.046C268.483 359.579 268.517 358.512 268.45 356.846C267.65 357.379 266.45 358.846 264.85 361.246C263.183 363.779 261.717 365.579 260.45 366.646C258.317 368.446 255.883 369.346 253.15 369.346C251.55 369.346 249.983 368.746 248.45 367.546C247.717 367.012 246.417 365.846 244.55 364.046C241.35 360.846 239.617 359.079 239.35 358.746C237.95 357.079 237.25 355.512 237.25 354.046C237.25 353.512 237.317 353.012 237.45 352.546C238.717 347.279 242.65 342.279 249.25 337.546C254.05 334.146 260.85 330.512 269.65 326.646C269.65 324.712 269.117 323.479 268.05 322.946C267.383 322.612 265.05 323.296 261.05 324.996C257.05 326.696 254.25 328.146 252.65 329.346C252.117 329.812 251.25 330.479 250.05 331.346C248.917 331.946 247.883 332.112 246.95 331.846C246.217 331.646 244.65 330.562 242.25 328.596C239.85 326.629 238.55 325.312 238.35 324.646C237.817 323.046 238.383 321.779 240.05 320.846C240.117 320.779 241.45 320.446 244.05 319.846C246.517 318.646 248.983 317.446 251.45 316.246C256.65 313.979 261.05 312.779 264.65 312.646C266.183 312.579 267.917 313.279 269.85 314.746C271.583 316.146 273.333 317.512 275.1 318.846C276.867 320.179 278.683 321.479 280.55 322.746C282.683 324.412 283.75 326.046 283.75 327.646L283.75 361.646C284.417 363.179 284.717 364.246 284.65 364.846ZM268.65 338.546C265.383 339.679 262.583 341.412 260.25 343.746C258.517 345.679 256.783 347.579 255.05 349.446C253.65 350.712 252.333 352.346 251.1 354.346C249.867 356.346 249.25 357.812 249.25 358.746C249.25 359.212 249.45 359.446 249.85 359.446C251.25 359.446 254.383 356.746 259.25 351.346C264.117 345.946 267.25 341.679 268.65 338.546Z"/>
<path d="M325.45 322.646C325.383 323.779 324.983 324.762 324.25 325.596C323.517 326.429 322.717 326.846 321.85 326.846C321.583 326.846 321.35 326.812 321.15 326.746C320.217 326.412 318.117 326.246 314.85 326.246L314.85 361.846C314.85 361.779 315.067 362.262 315.5 363.296C315.933 364.329 316.15 365.212 316.15 365.946C316.15 367.679 314.817 368.612 312.15 368.746C310.75 368.812 308.183 368.279 304.45 367.146C300.383 365.946 298.217 364.846 297.95 363.846C297.817 363.379 298.05 362.479 298.65 361.146C299.25 359.812 299.55 358.779 299.55 358.046L299.55 326.146L296.15 326.146C294.883 326.146 293.317 325.146 291.45 323.146C289.583 321.146 288.65 319.546 288.65 318.346C288.65 317.479 289.033 316.679 289.8 315.946C290.567 315.212 291.417 314.846 292.35 314.846L299.55 314.846L299.55 306.746C298.55 305.546 298.05 304.246 298.05 302.846C298.05 301.579 298.65 300.812 299.85 300.546C300.45 300.412 301.283 300.346 302.35 300.346C304.817 300.346 307.7 300.696 311 301.396C314.3 302.096 316.45 302.812 317.45 303.546C317.917 303.879 318.15 304.279 318.15 304.746C318.15 305.346 317.617 306.246 316.55 307.446C315.483 308.646 314.917 309.479 314.85 309.946L314.85 314.846L318.05 314.846C318.717 314.846 320.117 315.929 322.25 318.096C324.383 320.262 325.45 321.779 325.45 322.646Z"/>
<path d="M368.25 357.846C368.25 361.179 367.033 363.829 364.6 365.796C362.167 367.762 358.75 368.779 354.35 368.846C353.283 368.846 352.117 368.712 350.85 368.446C348.583 367.846 347.383 367.546 347.25 367.546C346.05 367.279 344.833 367.012 343.6 366.746C342.367 366.479 341.317 366.012 340.45 365.346C338.983 364.146 337.55 362.479 336.15 360.346C335.017 358.679 333.917 356.979 332.85 355.246C331.783 353.512 331.25 352.479 331.25 352.146C331.25 351.279 331.917 350.646 333.25 350.246C333.583 350.112 334.183 350.046 335.05 350.046C337.05 350.046 339.567 350.246 342.6 350.646C345.633 351.046 347.283 351.379 347.55 351.646C347.817 351.912 348.183 353.612 348.65 356.746C349.05 359.546 349.75 360.946 350.75 360.946C352.283 360.946 353.05 359.079 353.05 355.346C353.05 350.612 351.65 347.646 348.85 346.446C342.45 343.712 338.25 341.312 336.25 339.246C333.783 336.646 332.55 332.746 332.55 327.546C332.55 324.146 333.55 320.929 335.55 317.896C337.55 314.862 339.917 313.046 342.65 312.446C343.85 312.179 347.717 313.312 354.25 315.846C354.85 316.046 356.617 316.379 359.55 316.846C361.617 317.179 363.083 317.812 363.95 318.746C365.217 320.079 365.95 322.246 366.15 325.246C366.217 327.512 366.25 329.746 366.25 331.946C366.717 334.012 366.95 335.212 366.95 335.546C366.95 337.212 366.05 338.179 364.25 338.446C363.317 338.579 361.483 338.246 358.75 337.446C355.75 336.512 353.85 335.579 353.05 334.646C352.85 334.379 352.65 332.146 352.45 327.946C352.25 323.879 351.783 321.846 351.05 321.846C350.05 321.846 349.117 323.012 348.25 325.346C347.383 327.679 346.95 330.112 346.95 332.646C346.95 335.846 347.717 337.879 349.25 338.746C352.517 340.346 355.767 341.962 359 343.596C362.233 345.229 364.483 346.912 365.75 348.646C367.417 350.979 368.25 354.046 368.25 357.846Z"/>
</g>
<path d="M140.15 158.085L202.401 158.085L202.401 286.316L140.15 286.316L140.15 158.085Z" fill="#ffffff" fill-rule="nonzero" opacity="1" stroke="#007aff" stroke-linecap="butt" stroke-linejoin="round" stroke-opacity="0.0178888" stroke-width="10"/>
<path d="M224.875 120.854L287.125 120.854L287.125 286.316L224.875 286.316L224.875 120.854Z" fill="#ffffff" fill-rule="nonzero" opacity="1" stroke="#007aff" stroke-linecap="butt" stroke-linejoin="round" stroke-opacity="0.0178888" stroke-width="10"/>
<path d="M309.599 188.64L371.85 188.64L371.85 286.316L309.599 286.316L309.599 188.64Z" fill="#ffffff" fill-rule="nonzero" opacity="1" stroke="#007aff" stroke-linecap="butt" stroke-linejoin="round" stroke-opacity="0.0178888" stroke-width="10"/>
</g>
</svg>
